<?xml version="1.0" encoding="UTF-8"?>
<svg xmlns="http://www.w3.org/2000/svg" viewBox="0 0 512 512" role="img" aria-labelledby="title desc">
  <title id="title">Panthera Terminal brand mark</title>
  <desc id="desc">A six-tooth blue drive ring, three-axis robot joint, and charcoal robotic gripper on a transparent background.</desc>
  <defs>
    <linearGradient id="accent" x1="82" y1="104" x2="374" y2="454" gradientUnits="userSpaceOnUse">
      <stop offset="0" stop-color="#37A5FF"/>
      <stop offset="0.55" stop-color="#0A7BEA"/>
      <stop offset="1" stop-color="#0067C0"/>
    </linearGradient>
    <linearGradient id="graphite" x1="300" y1="70" x2="455" y2="232" gradientUnits="userSpaceOnUse">
      <stop offset="0" stop-color="#26323D"/>
      <stop offset="1" stop-color="#111820"/>
    </linearGradient>
  </defs>

  <g fill="url(#accent)">
    <rect x="190" y="92" width="56" height="84" rx="14"/>
    <rect x="190" y="92" width="56" height="84" rx="14" transform="rotate(60 218 288)"/>
    <rect x="190" y="92" width="56" height="84" rx="14" transform="rotate(120 218 288)"/>
    <rect x="190" y="92" width="56" height="84" rx="14" transform="rotate(180 218 288)"/>
    <rect x="190" y="92" width="56" height="84" rx="14" transform="rotate(240 218 288)"/>
    <rect x="190" y="92" width="56" height="84" rx="14" transform="rotate(300 218 288)"/>
    <circle cx="218" cy="288" r="118" fill="none" stroke="url(#accent)" stroke-width="48"/>
  </g>

  <g fill="none" stroke-linecap="round" stroke-width="28">
    <path d="M218 288V216" stroke="#202A34"/>
    <path d="M218 288L151 337" stroke="#9AA4AE"/>
    <path d="M218 288L294 344" stroke="#0A7BEA"/>
  </g>
  <circle cx="218" cy="288" r="33" fill="#FFFFFF" stroke="#1488F4" stroke-width="17"/>

  <g fill="url(#graphite)" stroke="url(#graphite)" stroke-linejoin="round">
    <path d="M284 219L345 158" fill="none" stroke-width="23" stroke-linecap="square"/>
    <path d="M309 244L370 183" fill="none" stroke-width="23" stroke-linecap="square"/>
    <path d="M341 145L331 124L340 86L390 57L421 73L382 101L377 125L397 146L424 146L453 116L463 144L433 180L391 180Z" stroke="none"/>
  </g>
</svg>
